<mxfile host="Electron" modified="2023-09-16T23:06:04.577Z" agent="Mozilla/5.0 (Macintosh; Intel Mac OS X 10_15_7) AppleWebKit/537.36 (KHTML, like Gecko) draw.io/21.7.5 Chrome/114.0.5735.289 Electron/25.8.1 Safari/537.36" etag="ALJJ7tAOb3m3KoiBFmpY" version="21.7.5" type="device">
  <diagram name="第 1 页" id="O5DA0WgUkWj6eyIi3bCS">
    <mxGraphModel dx="2309" dy="755" grid="1" gridSize="10" guides="1" tooltips="1" connect="1" arrows="1" fold="1" page="1" pageScale="1" pageWidth="827" pageHeight="1169" math="0" shadow="0">
      <root>
        <mxCell id="0" />
        <mxCell id="1" parent="0" />
        <mxCell id="WrwHlXX3nAisrxPO1b8e-92" value="" style="rounded=0;whiteSpace=wrap;html=1;" vertex="1" parent="1">
          <mxGeometry x="1440" y="870" width="270" height="280" as="geometry" />
        </mxCell>
        <mxCell id="WrwHlXX3nAisrxPO1b8e-49" style="edgeStyle=orthogonalEdgeStyle;rounded=0;orthogonalLoop=1;jettySize=auto;html=1;" edge="1" parent="1" source="WrwHlXX3nAisrxPO1b8e-38" target="WrwHlXX3nAisrxPO1b8e-41">
          <mxGeometry relative="1" as="geometry" />
        </mxCell>
        <mxCell id="WrwHlXX3nAisrxPO1b8e-38" value="" style="rounded=0;whiteSpace=wrap;html=1;" vertex="1" parent="1">
          <mxGeometry x="580" y="530" width="400" height="190" as="geometry" />
        </mxCell>
        <mxCell id="WrwHlXX3nAisrxPO1b8e-5" value="" style="edgeStyle=orthogonalEdgeStyle;rounded=0;orthogonalLoop=1;jettySize=auto;html=1;" edge="1" parent="1" source="WrwHlXX3nAisrxPO1b8e-3" target="WrwHlXX3nAisrxPO1b8e-4">
          <mxGeometry relative="1" as="geometry" />
        </mxCell>
        <mxCell id="WrwHlXX3nAisrxPO1b8e-73" style="edgeStyle=orthogonalEdgeStyle;rounded=0;orthogonalLoop=1;jettySize=auto;html=1;" edge="1" parent="1" source="WrwHlXX3nAisrxPO1b8e-3" target="WrwHlXX3nAisrxPO1b8e-30">
          <mxGeometry relative="1" as="geometry" />
        </mxCell>
        <mxCell id="WrwHlXX3nAisrxPO1b8e-3" value="main" style="ellipse;whiteSpace=wrap;html=1;fillColor=#dae8fc;strokeColor=#6c8ebf;" vertex="1" parent="1">
          <mxGeometry x="380" y="160" width="120" height="80" as="geometry" />
        </mxCell>
        <mxCell id="WrwHlXX3nAisrxPO1b8e-7" value="" style="edgeStyle=orthogonalEdgeStyle;rounded=0;orthogonalLoop=1;jettySize=auto;html=1;" edge="1" parent="1" source="WrwHlXX3nAisrxPO1b8e-4" target="WrwHlXX3nAisrxPO1b8e-6">
          <mxGeometry relative="1" as="geometry" />
        </mxCell>
        <mxCell id="WrwHlXX3nAisrxPO1b8e-4" value="ExecutorServer" style="whiteSpace=wrap;html=1;" vertex="1" parent="1">
          <mxGeometry x="20" y="310" width="120" height="60" as="geometry" />
        </mxCell>
        <mxCell id="WrwHlXX3nAisrxPO1b8e-11" value="" style="edgeStyle=orthogonalEdgeStyle;rounded=0;orthogonalLoop=1;jettySize=auto;html=1;" edge="1" parent="1" source="WrwHlXX3nAisrxPO1b8e-6" target="WrwHlXX3nAisrxPO1b8e-10">
          <mxGeometry relative="1" as="geometry" />
        </mxCell>
        <mxCell id="WrwHlXX3nAisrxPO1b8e-13" value="" style="edgeStyle=orthogonalEdgeStyle;rounded=0;orthogonalLoop=1;jettySize=auto;html=1;" edge="1" parent="1" source="WrwHlXX3nAisrxPO1b8e-6" target="WrwHlXX3nAisrxPO1b8e-12">
          <mxGeometry relative="1" as="geometry" />
        </mxCell>
        <mxCell id="WrwHlXX3nAisrxPO1b8e-24" style="edgeStyle=orthogonalEdgeStyle;rounded=0;orthogonalLoop=1;jettySize=auto;html=1;" edge="1" parent="1" source="WrwHlXX3nAisrxPO1b8e-6" target="WrwHlXX3nAisrxPO1b8e-23">
          <mxGeometry relative="1" as="geometry" />
        </mxCell>
        <mxCell id="WrwHlXX3nAisrxPO1b8e-6" value="ExecutorServiceImpl" style="whiteSpace=wrap;html=1;" vertex="1" parent="1">
          <mxGeometry x="20" y="450" width="120" height="60" as="geometry" />
        </mxCell>
        <mxCell id="WrwHlXX3nAisrxPO1b8e-10" value="HashDBClientFactory::createHashDBClient" style="whiteSpace=wrap;html=1;fillColor=#dae8fc;strokeColor=#6c8ebf;" vertex="1" parent="1">
          <mxGeometry x="180" y="450" width="250" height="60" as="geometry" />
        </mxCell>
        <mxCell id="WrwHlXX3nAisrxPO1b8e-17" value="" style="edgeStyle=orthogonalEdgeStyle;rounded=0;orthogonalLoop=1;jettySize=auto;html=1;" edge="1" parent="1" source="WrwHlXX3nAisrxPO1b8e-12" target="WrwHlXX3nAisrxPO1b8e-16">
          <mxGeometry relative="1" as="geometry" />
        </mxCell>
        <mxCell id="WrwHlXX3nAisrxPO1b8e-12" value="ExecutorServiceImpl::ProcessBatch" style="whiteSpace=wrap;html=1;" vertex="1" parent="1">
          <mxGeometry x="-180" y="580" width="200" height="60" as="geometry" />
        </mxCell>
        <mxCell id="WrwHlXX3nAisrxPO1b8e-19" value="" style="edgeStyle=orthogonalEdgeStyle;rounded=0;orthogonalLoop=1;jettySize=auto;html=1;" edge="1" parent="1" source="WrwHlXX3nAisrxPO1b8e-16" target="WrwHlXX3nAisrxPO1b8e-18">
          <mxGeometry relative="1" as="geometry" />
        </mxCell>
        <mxCell id="WrwHlXX3nAisrxPO1b8e-16" value="Prover::processBatch" style="whiteSpace=wrap;html=1;" vertex="1" parent="1">
          <mxGeometry x="-180" y="670" width="200" height="60" as="geometry" />
        </mxCell>
        <mxCell id="WrwHlXX3nAisrxPO1b8e-21" value="" style="edgeStyle=orthogonalEdgeStyle;rounded=0;orthogonalLoop=1;jettySize=auto;html=1;" edge="1" parent="1" source="WrwHlXX3nAisrxPO1b8e-18" target="WrwHlXX3nAisrxPO1b8e-20">
          <mxGeometry relative="1" as="geometry" />
        </mxCell>
        <mxCell id="WrwHlXX3nAisrxPO1b8e-18" value="Executor::process_batch" style="whiteSpace=wrap;html=1;" vertex="1" parent="1">
          <mxGeometry x="-155" y="770" width="150" height="60" as="geometry" />
        </mxCell>
        <mxCell id="WrwHlXX3nAisrxPO1b8e-20" value="fork_5::main_exec_generated_fast" style="whiteSpace=wrap;html=1;" vertex="1" parent="1">
          <mxGeometry x="-180" y="880" width="200" height="60" as="geometry" />
        </mxCell>
        <mxCell id="WrwHlXX3nAisrxPO1b8e-27" value="" style="edgeStyle=orthogonalEdgeStyle;rounded=0;orthogonalLoop=1;jettySize=auto;html=1;" edge="1" parent="1" source="WrwHlXX3nAisrxPO1b8e-23" target="WrwHlXX3nAisrxPO1b8e-26">
          <mxGeometry relative="1" as="geometry" />
        </mxCell>
        <mxCell id="WrwHlXX3nAisrxPO1b8e-23" value="ExecutorServiceImpl::GetFlushStatus" style="whiteSpace=wrap;html=1;" vertex="1" parent="1">
          <mxGeometry x="90" y="580" width="230" height="60" as="geometry" />
        </mxCell>
        <mxCell id="WrwHlXX3nAisrxPO1b8e-29" value="" style="edgeStyle=orthogonalEdgeStyle;rounded=0;orthogonalLoop=1;jettySize=auto;html=1;" edge="1" parent="1" source="WrwHlXX3nAisrxPO1b8e-26" target="WrwHlXX3nAisrxPO1b8e-28">
          <mxGeometry relative="1" as="geometry" />
        </mxCell>
        <mxCell id="WrwHlXX3nAisrxPO1b8e-26" value="HashDBInterface::getFlushStatus" style="whiteSpace=wrap;html=1;" vertex="1" parent="1">
          <mxGeometry x="90" y="670" width="230" height="60" as="geometry" />
        </mxCell>
        <mxCell id="WrwHlXX3nAisrxPO1b8e-28" value="Database::getFlushStatus" style="whiteSpace=wrap;html=1;" vertex="1" parent="1">
          <mxGeometry x="90" y="770" width="230" height="60" as="geometry" />
        </mxCell>
        <mxCell id="WrwHlXX3nAisrxPO1b8e-32" value="" style="edgeStyle=orthogonalEdgeStyle;rounded=0;orthogonalLoop=1;jettySize=auto;html=1;" edge="1" parent="1" source="WrwHlXX3nAisrxPO1b8e-30" target="WrwHlXX3nAisrxPO1b8e-31">
          <mxGeometry relative="1" as="geometry" />
        </mxCell>
        <mxCell id="WrwHlXX3nAisrxPO1b8e-30" value="AggregatorClient" style="whiteSpace=wrap;html=1;" vertex="1" parent="1">
          <mxGeometry x="720" y="320" width="120" height="60" as="geometry" />
        </mxCell>
        <mxCell id="WrwHlXX3nAisrxPO1b8e-39" style="edgeStyle=orthogonalEdgeStyle;rounded=0;orthogonalLoop=1;jettySize=auto;html=1;" edge="1" parent="1" source="WrwHlXX3nAisrxPO1b8e-31" target="WrwHlXX3nAisrxPO1b8e-38">
          <mxGeometry relative="1" as="geometry" />
        </mxCell>
        <mxCell id="WrwHlXX3nAisrxPO1b8e-31" value="aggregatorClientThread" style="whiteSpace=wrap;html=1;" vertex="1" parent="1">
          <mxGeometry x="705" y="420" width="150" height="60" as="geometry" />
        </mxCell>
        <mxCell id="WrwHlXX3nAisrxPO1b8e-33" value="GenAggregatedProof" style="whiteSpace=wrap;html=1;" vertex="1" parent="1">
          <mxGeometry x="630" y="560" width="140" height="60" as="geometry" />
        </mxCell>
        <mxCell id="WrwHlXX3nAisrxPO1b8e-35" value="GetProof" style="whiteSpace=wrap;html=1;" vertex="1" parent="1">
          <mxGeometry x="800" y="555" width="140" height="60" as="geometry" />
        </mxCell>
        <mxCell id="WrwHlXX3nAisrxPO1b8e-36" value="GenBatchProof" style="whiteSpace=wrap;html=1;" vertex="1" parent="1">
          <mxGeometry x="630" y="640" width="140" height="60" as="geometry" />
        </mxCell>
        <mxCell id="WrwHlXX3nAisrxPO1b8e-37" value="GenFinalProof" style="whiteSpace=wrap;html=1;" vertex="1" parent="1">
          <mxGeometry x="800" y="640" width="140" height="60" as="geometry" />
        </mxCell>
        <mxCell id="WrwHlXX3nAisrxPO1b8e-40" value="AggregatorClient" style="text;html=1;strokeColor=none;fillColor=none;align=center;verticalAlign=middle;whiteSpace=wrap;rounded=0;" vertex="1" parent="1">
          <mxGeometry x="600" y="530" width="90" height="30" as="geometry" />
        </mxCell>
        <mxCell id="WrwHlXX3nAisrxPO1b8e-47" style="edgeStyle=orthogonalEdgeStyle;rounded=0;orthogonalLoop=1;jettySize=auto;html=1;" edge="1" parent="1" source="WrwHlXX3nAisrxPO1b8e-41" target="WrwHlXX3nAisrxPO1b8e-42">
          <mxGeometry relative="1" as="geometry" />
        </mxCell>
        <mxCell id="WrwHlXX3nAisrxPO1b8e-41" value="Prover::genBatchProof" style="whiteSpace=wrap;html=1;" vertex="1" parent="1">
          <mxGeometry x="710" y="750" width="140" height="60" as="geometry" />
        </mxCell>
        <mxCell id="WrwHlXX3nAisrxPO1b8e-44" value="" style="edgeStyle=orthogonalEdgeStyle;rounded=0;orthogonalLoop=1;jettySize=auto;html=1;" edge="1" parent="1" source="WrwHlXX3nAisrxPO1b8e-42" target="WrwHlXX3nAisrxPO1b8e-43">
          <mxGeometry relative="1" as="geometry" />
        </mxCell>
        <mxCell id="WrwHlXX3nAisrxPO1b8e-42" value="Executor::execute" style="whiteSpace=wrap;html=1;" vertex="1" parent="1">
          <mxGeometry x="710" y="830" width="140" height="60" as="geometry" />
        </mxCell>
        <mxCell id="WrwHlXX3nAisrxPO1b8e-46" value="" style="edgeStyle=orthogonalEdgeStyle;rounded=0;orthogonalLoop=1;jettySize=auto;html=1;" edge="1" parent="1" source="WrwHlXX3nAisrxPO1b8e-43" target="WrwHlXX3nAisrxPO1b8e-45">
          <mxGeometry relative="1" as="geometry" />
        </mxCell>
        <mxCell id="WrwHlXX3nAisrxPO1b8e-43" value="PROVER_FORK_NAMESPACE::main_exec_generated" style="whiteSpace=wrap;html=1;" vertex="1" parent="1">
          <mxGeometry x="617.5" y="920" width="325" height="60" as="geometry" />
        </mxCell>
        <mxCell id="WrwHlXX3nAisrxPO1b8e-45" value="HashDBClientFactory::createHashDBClient" style="whiteSpace=wrap;html=1;" vertex="1" parent="1">
          <mxGeometry x="617.5" y="1010" width="325" height="60" as="geometry" />
        </mxCell>
        <mxCell id="WrwHlXX3nAisrxPO1b8e-52" style="edgeStyle=orthogonalEdgeStyle;rounded=0;orthogonalLoop=1;jettySize=auto;html=1;" edge="1" parent="1" source="WrwHlXX3nAisrxPO1b8e-50" target="WrwHlXX3nAisrxPO1b8e-51">
          <mxGeometry relative="1" as="geometry" />
        </mxCell>
        <mxCell id="WrwHlXX3nAisrxPO1b8e-50" value="HashDBClientFactory::createHashDBClient" style="ellipse;whiteSpace=wrap;html=1;fillColor=#dae8fc;strokeColor=#6c8ebf;" vertex="1" parent="1">
          <mxGeometry x="1440" y="350" width="260" height="80" as="geometry" />
        </mxCell>
        <mxCell id="WrwHlXX3nAisrxPO1b8e-54" style="edgeStyle=orthogonalEdgeStyle;rounded=0;orthogonalLoop=1;jettySize=auto;html=1;entryX=0;entryY=0.5;entryDx=0;entryDy=0;" edge="1" parent="1" source="WrwHlXX3nAisrxPO1b8e-51" target="WrwHlXX3nAisrxPO1b8e-53">
          <mxGeometry relative="1" as="geometry" />
        </mxCell>
        <mxCell id="WrwHlXX3nAisrxPO1b8e-56" style="edgeStyle=orthogonalEdgeStyle;rounded=0;orthogonalLoop=1;jettySize=auto;html=1;entryX=0.5;entryY=0;entryDx=0;entryDy=0;" edge="1" parent="1" source="WrwHlXX3nAisrxPO1b8e-51" target="WrwHlXX3nAisrxPO1b8e-55">
          <mxGeometry relative="1" as="geometry" />
        </mxCell>
        <mxCell id="WrwHlXX3nAisrxPO1b8e-51" value="是否为local" style="rhombus;whiteSpace=wrap;html=1;" vertex="1" parent="1">
          <mxGeometry x="1500" y="460" width="140" height="80" as="geometry" />
        </mxCell>
        <mxCell id="WrwHlXX3nAisrxPO1b8e-75" style="edgeStyle=orthogonalEdgeStyle;rounded=0;orthogonalLoop=1;jettySize=auto;html=1;dashed=1;" edge="1" parent="1" source="WrwHlXX3nAisrxPO1b8e-53" target="WrwHlXX3nAisrxPO1b8e-74">
          <mxGeometry relative="1" as="geometry" />
        </mxCell>
        <mxCell id="WrwHlXX3nAisrxPO1b8e-53" value="HashDBRemote" style="rounded=0;whiteSpace=wrap;html=1;" vertex="1" parent="1">
          <mxGeometry x="1700" y="470" width="120" height="60" as="geometry" />
        </mxCell>
        <mxCell id="WrwHlXX3nAisrxPO1b8e-66" style="edgeStyle=orthogonalEdgeStyle;rounded=0;orthogonalLoop=1;jettySize=auto;html=1;" edge="1" parent="1" source="WrwHlXX3nAisrxPO1b8e-55" target="WrwHlXX3nAisrxPO1b8e-57">
          <mxGeometry relative="1" as="geometry" />
        </mxCell>
        <mxCell id="WrwHlXX3nAisrxPO1b8e-55" value="hashDBSingleton" style="rounded=0;whiteSpace=wrap;html=1;" vertex="1" parent="1">
          <mxGeometry x="1510" y="585" width="120" height="60" as="geometry" />
        </mxCell>
        <mxCell id="WrwHlXX3nAisrxPO1b8e-67" style="edgeStyle=orthogonalEdgeStyle;rounded=0;orthogonalLoop=1;jettySize=auto;html=1;" edge="1" parent="1" source="WrwHlXX3nAisrxPO1b8e-57" target="WrwHlXX3nAisrxPO1b8e-58">
          <mxGeometry relative="1" as="geometry" />
        </mxCell>
        <mxCell id="WrwHlXX3nAisrxPO1b8e-68" style="edgeStyle=orthogonalEdgeStyle;rounded=0;orthogonalLoop=1;jettySize=auto;html=1;entryX=0.5;entryY=0;entryDx=0;entryDy=0;" edge="1" parent="1" source="WrwHlXX3nAisrxPO1b8e-57" target="WrwHlXX3nAisrxPO1b8e-60">
          <mxGeometry relative="1" as="geometry" />
        </mxCell>
        <mxCell id="WrwHlXX3nAisrxPO1b8e-57" value="HashDB" style="rounded=0;whiteSpace=wrap;html=1;" vertex="1" parent="1">
          <mxGeometry x="1510" y="670" width="120" height="60" as="geometry" />
        </mxCell>
        <mxCell id="WrwHlXX3nAisrxPO1b8e-70" style="edgeStyle=orthogonalEdgeStyle;rounded=0;orthogonalLoop=1;jettySize=auto;html=1;entryX=1;entryY=0.5;entryDx=0;entryDy=0;endArrow=block;endFill=0;" edge="1" parent="1" source="WrwHlXX3nAisrxPO1b8e-58" target="WrwHlXX3nAisrxPO1b8e-63">
          <mxGeometry relative="1" as="geometry" />
        </mxCell>
        <mxCell id="WrwHlXX3nAisrxPO1b8e-72" style="edgeStyle=orthogonalEdgeStyle;rounded=0;orthogonalLoop=1;jettySize=auto;html=1;" edge="1" parent="1" source="WrwHlXX3nAisrxPO1b8e-58" target="WrwHlXX3nAisrxPO1b8e-59">
          <mxGeometry relative="1" as="geometry" />
        </mxCell>
        <mxCell id="WrwHlXX3nAisrxPO1b8e-81" style="edgeStyle=orthogonalEdgeStyle;rounded=0;orthogonalLoop=1;jettySize=auto;html=1;" edge="1" parent="1" source="WrwHlXX3nAisrxPO1b8e-58" target="WrwHlXX3nAisrxPO1b8e-60">
          <mxGeometry relative="1" as="geometry" />
        </mxCell>
        <mxCell id="WrwHlXX3nAisrxPO1b8e-58" value="Smt" style="rounded=0;whiteSpace=wrap;html=1;" vertex="1" parent="1">
          <mxGeometry x="1260" y="770" width="120" height="60" as="geometry" />
        </mxCell>
        <mxCell id="WrwHlXX3nAisrxPO1b8e-71" style="edgeStyle=orthogonalEdgeStyle;rounded=0;orthogonalLoop=1;jettySize=auto;html=1;endArrow=block;endFill=0;" edge="1" parent="1" source="WrwHlXX3nAisrxPO1b8e-59" target="WrwHlXX3nAisrxPO1b8e-64">
          <mxGeometry relative="1" as="geometry" />
        </mxCell>
        <mxCell id="WrwHlXX3nAisrxPO1b8e-59" value="stateManager" style="rounded=0;whiteSpace=wrap;html=1;" vertex="1" parent="1">
          <mxGeometry x="1260" y="870" width="120" height="60" as="geometry" />
        </mxCell>
        <mxCell id="WrwHlXX3nAisrxPO1b8e-69" style="edgeStyle=orthogonalEdgeStyle;rounded=0;orthogonalLoop=1;jettySize=auto;html=1;endArrow=block;endFill=0;" edge="1" parent="1" source="WrwHlXX3nAisrxPO1b8e-60" target="WrwHlXX3nAisrxPO1b8e-65">
          <mxGeometry relative="1" as="geometry">
            <Array as="points">
              <mxPoint x="2010" y="800" />
              <mxPoint x="2010" y="800" />
            </Array>
          </mxGeometry>
        </mxCell>
        <mxCell id="WrwHlXX3nAisrxPO1b8e-87" value="" style="edgeStyle=orthogonalEdgeStyle;rounded=0;orthogonalLoop=1;jettySize=auto;html=1;" edge="1" parent="1" source="WrwHlXX3nAisrxPO1b8e-60" target="WrwHlXX3nAisrxPO1b8e-86">
          <mxGeometry relative="1" as="geometry">
            <Array as="points">
              <mxPoint x="1750" y="850" />
              <mxPoint x="1575" y="850" />
            </Array>
          </mxGeometry>
        </mxCell>
        <mxCell id="WrwHlXX3nAisrxPO1b8e-91" value="" style="edgeStyle=orthogonalEdgeStyle;rounded=0;orthogonalLoop=1;jettySize=auto;html=1;" edge="1" parent="1" source="WrwHlXX3nAisrxPO1b8e-60" target="WrwHlXX3nAisrxPO1b8e-90">
          <mxGeometry relative="1" as="geometry">
            <Array as="points">
              <mxPoint x="1750" y="850" />
              <mxPoint x="1920" y="850" />
            </Array>
          </mxGeometry>
        </mxCell>
        <mxCell id="WrwHlXX3nAisrxPO1b8e-60" value="Database" style="rounded=0;whiteSpace=wrap;html=1;" vertex="1" parent="1">
          <mxGeometry x="1690" y="770" width="120" height="60" as="geometry" />
        </mxCell>
        <mxCell id="WrwHlXX3nAisrxPO1b8e-63" value="&lt;div style=&quot;border-color: var(--border-color); resize: none; outline: none; font-size: 13px; caret-color: rgb(50, 50, 50); color: rgb(50, 50, 50); font-family: 微软雅黑; text-size-adjust: auto; background-color: rgba(255, 255, 255, 0.01);&quot;&gt;set&lt;br style=&quot;border-color: var(--border-color);&quot;&gt;&lt;/div&gt;&lt;div style=&quot;border-color: var(--border-color); resize: none; outline: none; font-size: 13px; caret-color: rgb(50, 50, 50); color: rgb(50, 50, 50); font-family: 微软雅黑; text-size-adjust: auto; background-color: rgba(255, 255, 255, 0.01);&quot;&gt;get&lt;br style=&quot;border-color: var(--border-color);&quot;&gt;&lt;/div&gt;&lt;div style=&quot;border-color: var(--border-color); resize: none; outline: none; font-size: 13px; caret-color: rgb(50, 50, 50); color: rgb(50, 50, 50); font-family: 微软雅黑; text-size-adjust: auto; background-color: rgba(255, 255, 255, 0.01);&quot;&gt;hashSave&lt;/div&gt;" style="shape=step;perimeter=stepPerimeter;whiteSpace=wrap;html=1;fixedSize=1;fillColor=#fff2cc;strokeColor=#d6b656;" vertex="1" parent="1">
          <mxGeometry x="1090" y="760" width="120" height="80" as="geometry" />
        </mxCell>
        <mxCell id="WrwHlXX3nAisrxPO1b8e-64" value="&lt;div style=&quot;border-color: var(--border-color); resize: none; outline: none; font-size: 13px; caret-color: rgb(50, 50, 50); color: rgb(50, 50, 50); font-family: 微软雅黑; text-size-adjust: auto; background-color: rgba(255, 255, 255, 0.01);&quot;&gt;&lt;div style=&quot;resize: none; outline: none; text-size-adjust: auto;&quot;&gt;setOldStateRoot&lt;br&gt;&lt;/div&gt;&lt;div style=&quot;resize: none; outline: none; text-size-adjust: auto;&quot;&gt;read&lt;br&gt;&lt;/div&gt;&lt;div style=&quot;resize: none; outline: none; text-size-adjust: auto;&quot;&gt;deleteNode&lt;br&gt;&lt;/div&gt;&lt;div style=&quot;resize: none; outline: none; text-size-adjust: auto;&quot;&gt;write&lt;/div&gt;&lt;/div&gt;" style="shape=step;perimeter=stepPerimeter;whiteSpace=wrap;html=1;fixedSize=1;fillColor=#fff2cc;strokeColor=#d6b656;" vertex="1" parent="1">
          <mxGeometry x="1080" y="850" width="140" height="100" as="geometry" />
        </mxCell>
        <mxCell id="WrwHlXX3nAisrxPO1b8e-65" value="&lt;div style=&quot;border-color: var(--border-color); resize: none; outline: none; font-size: 13px; caret-color: rgb(50, 50, 50); color: rgb(50, 50, 50); font-family: 微软雅黑; text-size-adjust: auto; background-color: rgba(255, 255, 255, 0.01);&quot;&gt;setProgram&lt;div style=&quot;resize: none; outline: none; text-size-adjust: auto;&quot;&gt;getProgram&lt;br&gt;&lt;/div&gt;&lt;div style=&quot;resize: none; outline: none; text-size-adjust: auto;&quot;&gt;write&lt;br&gt;&lt;/div&gt;&lt;div style=&quot;resize: none; outline: none; text-size-adjust: auto;&quot;&gt;flush&lt;br&gt;&lt;/div&gt;&lt;div style=&quot;resize: none; outline: none; text-size-adjust: auto;&quot;&gt;semiFlush&lt;/div&gt;&lt;/div&gt;" style="shape=step;perimeter=stepPerimeter;whiteSpace=wrap;html=1;fixedSize=1;fillColor=#fff2cc;strokeColor=#d6b656;" vertex="1" parent="1">
          <mxGeometry x="2110" y="750" width="200" height="90" as="geometry" />
        </mxCell>
        <mxCell id="WrwHlXX3nAisrxPO1b8e-77" style="edgeStyle=orthogonalEdgeStyle;rounded=0;orthogonalLoop=1;jettySize=auto;html=1;" edge="1" parent="1" source="WrwHlXX3nAisrxPO1b8e-74" target="WrwHlXX3nAisrxPO1b8e-76">
          <mxGeometry relative="1" as="geometry" />
        </mxCell>
        <mxCell id="WrwHlXX3nAisrxPO1b8e-74" value="&lt;div style=&quot;background-color: rgb(255, 255, 255); font-family: Menlo, Monaco, &amp;quot;Courier New&amp;quot;, monospace; line-height: 18px;&quot;&gt;HashDBServer&lt;/div&gt;" style="rounded=0;whiteSpace=wrap;html=1;" vertex="1" parent="1">
          <mxGeometry x="1948" y="470" width="120" height="60" as="geometry" />
        </mxCell>
        <mxCell id="WrwHlXX3nAisrxPO1b8e-79" style="edgeStyle=orthogonalEdgeStyle;rounded=0;orthogonalLoop=1;jettySize=auto;html=1;entryX=0;entryY=0.5;entryDx=0;entryDy=0;dashed=1;endArrow=block;endFill=0;" edge="1" parent="1" source="WrwHlXX3nAisrxPO1b8e-76" target="WrwHlXX3nAisrxPO1b8e-78">
          <mxGeometry relative="1" as="geometry" />
        </mxCell>
        <mxCell id="WrwHlXX3nAisrxPO1b8e-80" style="edgeStyle=orthogonalEdgeStyle;rounded=0;orthogonalLoop=1;jettySize=auto;html=1;" edge="1" parent="1" source="WrwHlXX3nAisrxPO1b8e-76" target="WrwHlXX3nAisrxPO1b8e-55">
          <mxGeometry relative="1" as="geometry" />
        </mxCell>
        <mxCell id="WrwHlXX3nAisrxPO1b8e-76" value="&lt;div style=&quot;background-color: rgb(255, 255, 255); font-family: Menlo, Monaco, &amp;quot;Courier New&amp;quot;, monospace; line-height: 18px;&quot;&gt;&lt;div style=&quot;line-height: 18px;&quot;&gt;HashDBServiceImpl&lt;/div&gt;&lt;/div&gt;" style="rounded=0;whiteSpace=wrap;html=1;" vertex="1" parent="1">
          <mxGeometry x="1928" y="585" width="160" height="60" as="geometry" />
        </mxCell>
        <mxCell id="WrwHlXX3nAisrxPO1b8e-78" value="&lt;div style=&quot;border-color: var(--border-color); resize: none; outline: none; font-size: 13px; caret-color: rgb(50, 50, 50); color: rgb(50, 50, 50); font-family: 微软雅黑; text-size-adjust: auto; background-color: rgba(255, 255, 255, 0.01);&quot;&gt;&lt;div style=&quot;color: rgb(0, 0, 0); background-color: rgb(255, 255, 255); font-family: Menlo, Monaco, &amp;quot;Courier New&amp;quot;, monospace; font-size: 12px; line-height: 18px;&quot;&gt;&lt;div style=&quot;border-color: var(--border-color); line-height: 18px;&quot;&gt;Set&lt;/div&gt;&lt;div style=&quot;border-color: var(--border-color); color: rgb(50, 50, 50); font-family: 微软雅黑; font-size: 13px; resize: none; outline: none; text-size-adjust: auto;&quot;&gt;&lt;div style=&quot;border-color: var(--border-color); color: rgb(0, 0, 0); font-family: Menlo, Monaco, &amp;quot;Courier New&amp;quot;, monospace; font-size: 12px; line-height: 18px;&quot;&gt;Get&lt;/div&gt;&lt;/div&gt;&lt;div style=&quot;border-color: var(--border-color); color: rgb(50, 50, 50); font-family: 微软雅黑; font-size: 13px; resize: none; outline: none; text-size-adjust: auto;&quot;&gt;&lt;div style=&quot;border-color: var(--border-color); color: rgb(0, 0, 0); font-family: Menlo, Monaco, &amp;quot;Courier New&amp;quot;, monospace; font-size: 12px; line-height: 18px;&quot;&gt;SetProgram&lt;/div&gt;&lt;/div&gt;&lt;div style=&quot;border-color: var(--border-color); color: rgb(50, 50, 50); font-family: 微软雅黑; font-size: 13px; resize: none; outline: none; text-size-adjust: auto;&quot;&gt;&lt;div style=&quot;border-color: var(--border-color); color: rgb(0, 0, 0); font-family: Menlo, Monaco, &amp;quot;Courier New&amp;quot;, monospace; font-size: 12px; line-height: 18px;&quot;&gt;GetProgram&lt;/div&gt;&lt;/div&gt;&lt;div style=&quot;border-color: var(--border-color); color: rgb(50, 50, 50); font-family: 微软雅黑; font-size: 13px; resize: none; outline: none; text-size-adjust: auto;&quot;&gt;&lt;div style=&quot;border-color: var(--border-color); color: rgb(0, 0, 0); font-family: Menlo, Monaco, &amp;quot;Courier New&amp;quot;, monospace; font-size: 12px; line-height: 18px;&quot;&gt;Flush&lt;/div&gt;&lt;/div&gt;&lt;/div&gt;&lt;/div&gt;" style="shape=step;perimeter=stepPerimeter;whiteSpace=wrap;html=1;fixedSize=1;" vertex="1" parent="1">
          <mxGeometry x="2160" y="570" width="200" height="90" as="geometry" />
        </mxCell>
        <mxCell id="WrwHlXX3nAisrxPO1b8e-86" value="&lt;div style=&quot;background-color: rgb(255, 255, 255); font-family: Menlo, Monaco, &amp;quot;Courier New&amp;quot;, monospace; line-height: 18px;&quot;&gt;DatabaseMTAssociativeCache&lt;/div&gt;" style="rounded=0;whiteSpace=wrap;html=1;" vertex="1" parent="1">
          <mxGeometry x="1470" y="910" width="210" height="60" as="geometry" />
        </mxCell>
        <mxCell id="WrwHlXX3nAisrxPO1b8e-88" value="&lt;div style=&quot;background-color: rgb(255, 255, 255); font-family: Menlo, Monaco, &amp;quot;Courier New&amp;quot;, monospace; line-height: 18px;&quot;&gt;&lt;div style=&quot;line-height: 18px;&quot;&gt;DatabaseMTCache&lt;/div&gt;&lt;/div&gt;" style="rounded=0;whiteSpace=wrap;html=1;" vertex="1" parent="1">
          <mxGeometry x="1470" y="990" width="210" height="60" as="geometry" />
        </mxCell>
        <mxCell id="WrwHlXX3nAisrxPO1b8e-89" value="&lt;div style=&quot;background-color: rgb(255, 255, 255); font-family: Menlo, Monaco, &amp;quot;Courier New&amp;quot;, monospace; line-height: 18px;&quot;&gt;&lt;div style=&quot;line-height: 18px;&quot;&gt;&lt;div style=&quot;line-height: 18px;&quot;&gt;DatabaseProgramCache&lt;/div&gt;&lt;/div&gt;&lt;/div&gt;" style="rounded=0;whiteSpace=wrap;html=1;" vertex="1" parent="1">
          <mxGeometry x="1470" y="1070" width="210" height="60" as="geometry" />
        </mxCell>
        <mxCell id="WrwHlXX3nAisrxPO1b8e-95" value="" style="edgeStyle=orthogonalEdgeStyle;rounded=0;orthogonalLoop=1;jettySize=auto;html=1;" edge="1" parent="1" source="WrwHlXX3nAisrxPO1b8e-90" target="WrwHlXX3nAisrxPO1b8e-94">
          <mxGeometry relative="1" as="geometry" />
        </mxCell>
        <mxCell id="WrwHlXX3nAisrxPO1b8e-90" value="&lt;div style=&quot;background-color: rgb(255, 255, 255); font-family: Menlo, Monaco, &amp;quot;Courier New&amp;quot;, monospace; line-height: 18px;&quot;&gt;Database::flush&lt;/div&gt;" style="rounded=0;whiteSpace=wrap;html=1;" vertex="1" parent="1">
          <mxGeometry x="1860" y="910" width="120" height="60" as="geometry" />
        </mxCell>
        <mxCell id="WrwHlXX3nAisrxPO1b8e-93" value="3个catche" style="text;html=1;strokeColor=none;fillColor=none;align=center;verticalAlign=middle;whiteSpace=wrap;rounded=0;" vertex="1" parent="1">
          <mxGeometry x="1460" y="870" width="60" height="30" as="geometry" />
        </mxCell>
        <mxCell id="WrwHlXX3nAisrxPO1b8e-97" value="" style="edgeStyle=orthogonalEdgeStyle;rounded=0;orthogonalLoop=1;jettySize=auto;html=1;dashed=1;" edge="1" parent="1" source="WrwHlXX3nAisrxPO1b8e-94" target="WrwHlXX3nAisrxPO1b8e-96">
          <mxGeometry relative="1" as="geometry" />
        </mxCell>
        <mxCell id="WrwHlXX3nAisrxPO1b8e-94" value="&lt;div style=&quot;background-color: rgb(255, 255, 255); font-family: Menlo, Monaco, &amp;quot;Courier New&amp;quot;, monospace; line-height: 18px;&quot;&gt;multiWrite::Accept all intray data&lt;/div&gt;" style="rounded=0;whiteSpace=wrap;html=1;" vertex="1" parent="1">
          <mxGeometry x="1810" y="1030" width="220" height="60" as="geometry" />
        </mxCell>
        <mxCell id="WrwHlXX3nAisrxPO1b8e-107" style="edgeStyle=orthogonalEdgeStyle;rounded=0;orthogonalLoop=1;jettySize=auto;html=1;" edge="1" parent="1" source="WrwHlXX3nAisrxPO1b8e-96" target="WrwHlXX3nAisrxPO1b8e-98">
          <mxGeometry relative="1" as="geometry" />
        </mxCell>
        <mxCell id="WrwHlXX3nAisrxPO1b8e-96" value="&lt;div style=&quot;background-color: rgb(255, 255, 255); font-family: Menlo, Monaco, &amp;quot;Courier New&amp;quot;, monospace; line-height: 18px;&quot;&gt;&lt;div style=&quot;line-height: 18px;&quot;&gt;dbSenderThread&lt;/div&gt;&lt;/div&gt;" style="rounded=0;whiteSpace=wrap;html=1;" vertex="1" parent="1">
          <mxGeometry x="1850" y="1140" width="140" height="60" as="geometry" />
        </mxCell>
        <mxCell id="WrwHlXX3nAisrxPO1b8e-105" style="edgeStyle=orthogonalEdgeStyle;rounded=0;orthogonalLoop=1;jettySize=auto;html=1;" edge="1" parent="1" source="WrwHlXX3nAisrxPO1b8e-98" target="WrwHlXX3nAisrxPO1b8e-99">
          <mxGeometry relative="1" as="geometry" />
        </mxCell>
        <mxCell id="WrwHlXX3nAisrxPO1b8e-98" value="while&amp;nbsp;timedwait" style="rhombus;whiteSpace=wrap;html=1;" vertex="1" parent="1">
          <mxGeometry x="1847.5" y="1230" width="145" height="60" as="geometry" />
        </mxCell>
        <mxCell id="WrwHlXX3nAisrxPO1b8e-106" style="edgeStyle=orthogonalEdgeStyle;rounded=0;orthogonalLoop=1;jettySize=auto;html=1;entryX=1;entryY=0.5;entryDx=0;entryDy=0;exitX=1;exitY=0.5;exitDx=0;exitDy=0;" edge="1" parent="1" source="WrwHlXX3nAisrxPO1b8e-99" target="WrwHlXX3nAisrxPO1b8e-96">
          <mxGeometry relative="1" as="geometry">
            <mxPoint x="2030" y="1360" as="sourcePoint" />
            <Array as="points">
              <mxPoint x="2060" y="1340" />
              <mxPoint x="2060" y="1170" />
            </Array>
          </mxGeometry>
        </mxCell>
        <mxCell id="WrwHlXX3nAisrxPO1b8e-99" value="&lt;div style=&quot;background-color: rgb(255, 255, 255); font-family: Menlo, Monaco, &amp;quot;Courier New&amp;quot;, monospace; line-height: 18px;&quot;&gt;&lt;div style=&quot;line-height: 18px;&quot;&gt;&lt;div style=&quot;line-height: 18px;&quot;&gt;&lt;div style=&quot;line-height: 18px;&quot;&gt;&lt;div style=&quot;line-height: 18px;&quot;&gt;Database::sendData&lt;/div&gt;&lt;/div&gt;&lt;/div&gt;&lt;/div&gt;&lt;/div&gt;" style="rounded=0;whiteSpace=wrap;html=1;" vertex="1" parent="1">
          <mxGeometry x="1835" y="1330" width="170" height="60" as="geometry" />
        </mxCell>
      </root>
    </mxGraphModel>
  </diagram>
</mxfile>
